<svg width="28" height="28" viewBox="0 0 28 28" fill="none" xmlns="http://www.w3.org/2000/svg">
<path d="M24.889 3.11111H3.11122C2.69866 3.11111 2.303 3.275 2.01128 3.56673C1.71955 3.85845 1.55566 4.25411 1.55566 4.66667V23.3333C1.55566 23.7459 1.71955 24.1416 2.01128 24.4333C2.303 24.725 2.69866 24.8889 3.11122 24.8889H24.889C25.3016 24.8889 25.6972 24.725 25.9889 24.4333C26.2807 24.1416 26.4446 23.7459 26.4446 23.3333V4.66667C26.4446 4.25411 26.2807 3.85845 25.9889 3.56673C25.6972 3.275 25.3016 3.11111 24.889 3.11111ZM3.11122 23.3333V4.66667H24.889V23.3333H3.11122Z" fill="#473229"/>
<path d="M6.93783 10.8889C7.39932 10.8889 7.85044 10.752 8.23416 10.4957C8.61787 10.2393 8.91694 9.87485 9.09354 9.44849C9.27015 9.02213 9.31636 8.55298 9.22632 8.10035C9.13629 7.64773 8.91406 7.23197 8.58774 6.90565C8.26142 6.57932 7.84566 6.3571 7.39304 6.26706C6.94041 6.17703 6.47126 6.22324 6.0449 6.39984C5.61854 6.57645 5.25412 6.87552 4.99773 7.25923C4.74134 7.64295 4.60449 8.09407 4.60449 8.55556C4.60449 9.1744 4.85032 9.7679 5.28791 10.2055C5.72549 10.6431 6.31899 10.8889 6.93783 10.8889ZM6.93783 7.31112C7.18428 7.30958 7.42564 7.38125 7.63131 7.51705C7.83698 7.65286 7.99769 7.84667 8.09307 8.07392C8.18846 8.30117 8.21421 8.55163 8.16708 8.79354C8.11994 9.03545 8.00204 9.25791 7.82831 9.43273C7.65459 9.60755 7.43287 9.72685 7.19126 9.7755C6.94965 9.82415 6.69903 9.79996 6.47119 9.70601C6.24334 9.61205 6.04853 9.45256 5.91144 9.24774C5.77435 9.04293 5.70116 8.80202 5.70116 8.55556C5.7032 8.22821 5.83414 7.91484 6.06562 7.68336C6.2971 7.45188 6.61047 7.32094 6.93783 7.3189V7.31112Z" fill="#473229"/>
<path d="M17.7178 11.9544L13.5178 16.1544L10.4067 13.0433C10.261 12.8985 10.0639 12.8172 9.85838 12.8172C9.6529 12.8172 9.45577 12.8985 9.31005 13.0433L4.60449 17.8111V20.0122L9.8856 14.7311L12.4445 17.2511L9.52783 20.1678H11.6667L18.2389 13.5956L23.3334 18.6667V16.4733L18.8145 11.9544C18.6688 11.8096 18.4716 11.7283 18.2662 11.7283C18.0607 11.7283 17.8636 11.8096 17.7178 11.9544Z" fill="#473229"/>
</svg>
