<svg width="28" height="28" viewBox="0 0 28 28" fill="none" xmlns="http://www.w3.org/2000/svg">
<path d="M26.5719 14.3971L13.5625 1.38759C13.4004 1.22458 13.2075 1.09534 12.9951 1.00736C12.7827 0.91937 12.555 0.874386 12.3251 0.875006H3.5C2.80405 0.875802 2.13683 1.15262 1.64472 1.64473C1.15261 2.13684 0.875796 2.80406 0.875 3.50001V12.309C0.875383 12.5479 0.924522 12.7843 1.01941 13.0036C1.1143 13.2229 1.25294 13.4205 1.42685 13.5844L15.2661 26.585C15.5086 26.8142 15.8298 26.9417 16.1635 26.941C16.1798 26.941 16.1963 26.9407 16.2128 26.9401C16.3863 26.9343 16.5569 26.8939 16.7146 26.8213C16.8722 26.7486 17.0138 26.6452 17.131 26.5171L26.6099 16.2137C26.8399 15.9649 26.9644 15.6365 26.9573 15.2977C26.9503 14.959 26.8121 14.6361 26.5719 14.3971ZM16.1422 25.0069L2.625 12.309V3.50001C2.62527 3.26803 2.71755 3.04563 2.88159 2.88159C3.04562 2.71756 3.26802 2.62528 3.5 2.62501H12.3251L25.0378 15.3378L16.1422 25.0069Z" fill="#473229"/>
<path d="M8.09375 5.25C7.53131 5.25 6.9815 5.41678 6.51385 5.72926C6.0462 6.04173 5.68171 6.48587 5.46647 7.00549C5.25123 7.52512 5.19492 8.09691 5.30464 8.64854C5.41437 9.20017 5.68521 9.70688 6.08292 10.1046C6.48062 10.5023 6.98733 10.7731 7.53896 10.8829C8.09059 10.9926 8.66238 10.9363 9.182 10.721C9.70163 10.5058 10.1458 10.1413 10.4582 9.67365C10.7707 9.206 10.9375 8.65619 10.9375 8.09375C10.9366 7.3398 10.6368 6.61698 10.1036 6.08386C9.57052 5.55074 8.84769 5.25085 8.09375 5.25ZM8.09375 9.1875C7.87742 9.1875 7.66596 9.12335 7.48609 9.00317C7.30623 8.88299 7.16604 8.71217 7.08326 8.51231C7.00047 8.31245 6.97881 8.09254 7.02101 7.88037C7.06322 7.6682 7.16739 7.47332 7.32035 7.32035C7.47331 7.16739 7.6682 7.06322 7.88037 7.02102C8.09253 6.97881 8.31245 7.00047 8.51231 7.08326C8.71216 7.16604 8.88298 7.30623 9.00317 7.4861C9.12335 7.66596 9.1875 7.87743 9.1875 8.09375C9.18716 8.38373 9.07182 8.66173 8.86678 8.86678C8.66173 9.07183 8.38373 9.18717 8.09375 9.1875V9.1875Z" fill="#473229"/>
</svg>
