<svg width="126" height="126" viewBox="0 0 126 126" fill="none" xmlns="http://www.w3.org/2000/svg">
<path d="M41.7546 38.5C41.7546 36.4233 41.1388 34.3932 39.9851 32.6665C38.8313 30.9398 37.1914 29.594 35.2728 28.7993C33.3542 28.0045 31.243 27.7966 29.2062 28.2018C27.1694 28.6069 25.2985 29.6069 23.83 31.0754C22.3616 32.5438 21.3615 34.4148 20.9564 36.4516C20.5513 38.4884 20.7592 40.5996 21.5539 42.5182C22.3486 44.4368 23.6944 46.0767 25.4212 47.2304C27.1479 48.3842 29.1779 49 31.2546 49C34.0394 49 36.7101 47.8938 38.6793 45.9246C40.6484 43.9555 41.7546 41.2848 41.7546 38.5ZM25.6546 38.5C25.6546 37.3924 25.9831 36.3097 26.5984 35.3888C27.2137 34.4679 28.0883 33.7501 29.1116 33.3263C30.1349 32.9024 31.2609 32.7915 32.3471 33.0076C33.4334 33.2237 34.4313 33.757 35.2144 34.5402C35.9976 35.3234 36.531 36.3212 36.747 37.4075C36.9631 38.4938 36.8522 39.6198 36.4284 40.643C36.0045 41.6663 35.2867 42.5409 34.3658 43.1562C33.4449 43.7716 32.3622 44.1 31.2546 44.1C29.7694 44.1 28.345 43.51 27.2948 42.4598C26.2446 41.4096 25.6546 39.9852 25.6546 38.5Z" fill="#473229"/>
<path d="M60.8297 72.695L46.8297 58.6951C46.174 58.0432 45.2869 57.6773 44.3622 57.6773C43.4376 57.6773 42.5505 58.0432 41.8947 58.6951L20.7197 80.15V90.055L44.4847 66.2901L55.9997 77.63L42.8747 90.755H52.4997L82.0747 61.18L105 84V74.13L84.6647 53.7951C84.009 53.1432 83.1219 52.7773 82.1972 52.7773C81.2726 52.7773 80.3855 53.1432 79.7297 53.7951L60.8297 72.695Z" fill="#473229"/>
<path d="M112 46.27V105H14V21H78.75C78.7592 18.6331 79.0888 16.2784 79.73 14H14C12.1435 14 10.363 14.7375 9.05025 16.0503C7.7375 17.363 7 19.1435 7 21V105C7 106.857 7.7375 108.637 9.05025 109.95C10.363 111.262 12.1435 112 14 112H112C113.857 112 115.637 111.262 116.95 109.95C118.263 108.637 119 106.857 119 105V43.19C116.831 44.5551 114.472 45.593 112 46.27Z" fill="#473229"/>
<path d="M105 38.5C114.665 38.5 122.5 30.665 122.5 21C122.5 11.335 114.665 3.5 105 3.5C95.335 3.5 87.5 11.335 87.5 21C87.5 30.665 95.335 38.5 105 38.5Z" fill="#473229"/>
</svg>
