<svg width="28" height="28" viewBox="0 0 28 28" fill="none" xmlns="http://www.w3.org/2000/svg">
<path d="M14 13.125C13.7679 13.125 13.5454 13.2172 13.3813 13.3813C13.2172 13.5454 13.125 13.7679 13.125 14C13.125 14.2321 13.2172 14.4546 13.3813 14.6187C13.5454 14.7828 13.7679 14.875 14 14.875C14.2321 14.875 14.4546 14.7828 14.6187 14.6187C14.7828 14.4546 14.875 14.2321 14.875 14C14.875 13.7679 14.7828 13.5454 14.6187 13.3813C14.4546 13.2172 14.2321 13.125 14 13.125ZM10.5 13.125C10.2679 13.125 10.0454 13.2172 9.88127 13.3813C9.71717 13.5454 9.62499 13.7679 9.62499 14C9.62499 14.2321 9.71717 14.4546 9.88127 14.6187C10.0454 14.7828 10.2679 14.875 10.5 14.875C10.7321 14.875 10.9546 14.7828 11.1187 14.6187C11.2828 14.4546 11.375 14.2321 11.375 14C11.375 13.7679 11.2828 13.5454 11.1187 13.3813C10.9546 13.2172 10.7321 13.125 10.5 13.125ZM17.5 13.125C17.2679 13.125 17.0454 13.2172 16.8813 13.3813C16.7172 13.5454 16.625 13.7679 16.625 14C16.625 14.2321 16.7172 14.4546 16.8813 14.6187C17.0454 14.7828 17.2679 14.875 17.5 14.875C17.7321 14.875 17.9546 14.7828 18.1187 14.6187C18.2828 14.4546 18.375 14.2321 18.375 14C18.375 13.7679 18.2828 13.5454 18.1187 13.3813C17.9546 13.2172 17.7321 13.125 17.5 13.125ZM22.6508 6.17167C18.3283 1.39417 10.9492 1.02667 6.17165 5.348C1.39415 9.6705 1.02665 17.0497 5.34799 21.8272L2.50365 24.6703C2.42186 24.7519 2.36614 24.8559 2.34354 24.9692C2.32095 25.0825 2.3325 25.2 2.37674 25.3067C2.42097 25.4134 2.4959 25.5046 2.59202 25.5687C2.68814 25.6328 2.80113 25.6669 2.91665 25.6667H14C16.8927 25.6665 19.6822 24.5917 21.8272 22.6508C26.6058 18.3283 26.9745 10.9492 22.6508 6.17167ZM14 24.5H4.32482L6.57532 22.2495C6.68468 22.1401 6.74611 21.9918 6.74611 21.8371C6.74611 21.6824 6.68468 21.5341 6.57532 21.4247C5.10722 19.9565 4.10742 18.0859 3.70233 16.0495C3.29725 14.0131 3.50506 11.9023 4.2995 9.98406C5.09394 8.06576 6.43933 6.4261 8.16556 5.27238C9.8918 4.11866 11.9214 3.50268 13.9977 3.50233C16.7821 3.50202 19.4527 4.60785 21.4218 6.57654C23.3909 8.54524 24.4973 11.2155 24.4977 14C24.498 16.7845 23.3921 19.455 21.4234 21.4241C19.4547 23.3933 16.7845 24.4997 14 24.5Z" fill="#473229"/>
</svg>
